/* XPM */
static char *result[] = {
/* columns rows colors chars-per-pixel */
"32 32 53 1 ",
"  c #4F340F",
". c #63471D",
"X c #674C21",
"o c #6D5125",
"O c #715528",
"+ c #765A2C",
"@ c #7B5E30",
"# c #7F6233",
"$ c #8E713E",
"% c #957847",
"& c #947949",
"* c #957949",
"= c #967A4A",
"- c #9B8050",
"; c #9B8155",
": c #9B8255",
"> c #9C8255",
", c #A2895F",
"< c #A28960",
"1 c #A28A61",
"2 c #A8926C",
"3 c #AE9975",
"4 c #B59C73",
"5 c #B49D73",
"6 c #B59D73",
"7 c #B4A07F",
"8 c #B5A383",
"9 c #BAA88B",
"0 c #C1AB85",
"q c #C1AC85",
"w c #C0B095",
"e c #C6B8A0",
"r c #C9BCA5",
"t c #C8BCA6",
"y c #DBC9A8",
"u c #DBC9A9",
"i c #D2C7B5",
"p c #D5CCBD",
"a c #D6CDBD",
"s c #E1D0B1",
"d c #E2D0B2",
"f c #E8D7BA",
"g c #DCD4C8",
"h c #DCD5C8",
"j c #DED7CB",
"k c #EEDFC3",
"l c #E3DDD3",
"z c #E3DDD4",
"x c #F5E6CC",
"c c #E9E5DF",
"v c #E9E6DF",
"b c #EAE7E0",
"n c #F6F6F6",
/* pixels */
"nnnnnnnnnnnnnnnnnnnnnnnnnnnnnnnn",
"nnnnnnnnnnnnnnnnnnnnnnnnnnnnnnnn",
"nnnnnnnnnnnnnnnnnnnnnnnnnnnnnnnn",
"nnnnnnnnnnb7>=,innnnnnnnnnnnnnnn",
"nnnnnnnnnnw=====9nnnnnnnnnnnnnnn",
"nnnnnnnnnnj<3e<==jnnnnnnnnnnnnnn",
"nnnnnnnnnnnnnnb>=wnnnnnnnnnnnnnn",
"nnnnnnnnnnnng8;$$:8pnnnnnnnnnnnn",
"nnnnnnnnnnc2$$$$$$$$:vnnnnnnnnnn",
"nnnnnnnnnl*$$$@OX@$$$&znnnnnnnnn",
"nnnnnnnnc*$$$$$ .$$$$$&vnnnnnnnn",
"nnnnnnnn;$$$$$#+o$$$$$$2nnnnnnnn",
"nnnnnnna$$$$$$$$$$$$$$$$hnnnnnnn",
"nnnnnnn8$$$$$$$$$$$$$$$$8nnnnnnn",
"nnnnnnn1$$$$$$$$$$$$$$$$:nnnnnnn",
"nnnnnnn$$$$$%quxxd6$$$$$$nnnnnnn",
"nnnnnnn$$$$-fxxxxxxf-$$$$nnnnnnn",
"nnnnnnn$$$$fxxxxxxxxf%$$$nnnnnnn",
"nnnnnnn$$$5xxxxxxxxxx0$$$nnnnnnn",
"nnnnnnn$$$sxxxxxxxxxxy$$$nnnnnnn",
"nnnnnnn$$$xxxxxxxxxxxx$$$nnnnnnn",
"nnnnnnn$$$xxxxxxxxxxxx$$$nnnnnnn",
"nnnnnnn$$$xxxxxxxxxxxx$$$nnnnnnn",
"nnnnnnn$$$xxxxxxxxxxxx$$$nnnnnnn",
"nnnnnnn$$$xxxxxxxxxxxx$$$nnnnnnn",
"nnnnnnn*$$kxxxxxxxxxxf$$&nnnnnnn",
"nnnnnnnt*$6fxxxxxxxxk4$*rnnnnnnn",
"nnnnnnnnnnnnnnnnnnnnnnnnnnnnnnnn",
"nnnnnnnnnnnnnnnnnnnnnnnnnnnnnnnn",
"nnnnnnnnnnnnnnnnnnnnnnnnnnnnnnnn",
"nnnnnnnnnnnnnnnnnnnnnnnnnnnnnnnn",
"nnnnnnnnnnnnnnnnnnnnnnnnnnnnnnnn"
};
