/* XPM */
static char *result[] = {
/* columns rows colors chars-per-pixel */
"32 32 128 2 ",
"   c #3A4349",
".  c #474E51",
"X  c #846737",
"o  c #856638",
"O  c #8E713E",
"+  c #907340",
"@  c #927342",
"#  c #927541",
"$  c #947847",
"%  c #957847",
"&  c #997947",
"*  c #997B47",
"=  c #947949",
"-  c #957949",
";  c #957A4B",
":  c #967A4A",
">  c #9B7D49",
",  c #9C7E49",
"<  c #9D7F4A",
"1  c #9E7F4A",
"2  c #9C7F4D",
"3  c #877451",
"4  c #877551",
"5  c #877452",
"6  c #937F59",
"7  c #9F804C",
"8  c #9B8155",
"9  c #9B8255",
"0  c #9C8255",
"q  c #9F8558",
"w  c #A1824D",
"e  c #A1834D",
"r  c #A5854F",
"t  c #A08352",
"y  c #A58650",
"u  c #A68651",
"i  c #A68751",
"p  c #A28755",
"a  c #A58855",
"s  c #AD8D56",
"d  c #B1925D",
"f  c #B1925E",
"g  c #A28960",
"h  c #A28A61",
"j  c #A8916A",
"k  c #A8926C",
"l  c #AC966F",
"z  c #B69864",
"x  c #B69865",
"c  c #B69A6A",
"v  c #BB9E6C",
"b  c #B99E6F",
"n  c #AE9975",
"m  c #BFA373",
"M  c #C3A97B",
"N  c #C1A87D",
"B  c #B5A383",
"V  c #BAA88B",
"C  c #C6AD84",
"Z  c #C8AE82",
"A  c #C8AE83",
"S  c #C1AC89",
"D  c #CDB48A",
"F  c #C8B492",
"G  c #CDBB9C",
"H  c #CFBD9F",
"J  c #D1BA91",
"K  c #D0B894",
"L  c #D7BE94",
"P  c #C6B8A0",
"I  c #C9BCA5",
"U  c #FFA6A6",
"Y  c #FDABA4",
"T  c #F4B9A0",
"R  c #DAC59F",
"E  c #E0C597",
"W  c #EDC79B",
"Q  c #EFC39D",
"!  c #ECCA9B",
"~  c #EACC9A",
"^  c #EBCE9D",
"/  c #CCC0AB",
"(  c #D3C1A4",
")  c #D3C2A6",
"_  c #D3C2A7",
"`  c #D6C3A4",
"'  c #DAC5A0",
"]  c #DFCAA7",
"[  c #D2C7B5",
"{  c #D6C8B0",
"}  c #DFCEB3",
"|  c #D5CCBD",
" . c #D6CDBD",
".. c #DBCFBA",
"X. c #DFD3BF",
"o. c #ECCFA0",
"O. c #E2CCA8",
"+. c #E2CEAB",
"@. c #E3D0AE",
"#. c #E5D0AC",
"$. c #FAC6B9",
"%. c #F9CABB",
"&. c #EFD7B0",
"*. c #ECDBBD",
"=. c #F1DBB6",
"-. c #DFD5C4",
";. c #DCD4C8",
":. c #DCD5C8",
">. c #EEDFC3",
",. c #E4DCCE",
"<. c #E3DDD3",
"1. c #E3DDD4",
"2. c #F1E0C5",
"3. c #F4E1C6",
"4. c #F4E5C9",
"5. c #F5E6CC",
"6. c #E8E3D8",
"7. c #E9E5DF",
"8. c #E9E6DF",
"9. c #F1EBDF",
"0. c #EAE7E0",
"q. c #EDE9E2",
"w. c #F5EEE1",
"e. c #F0EFEB",
"r. c #F0EFEC",
"t. c #F2EFEC",
"y. c #F6F0E6",
"u. c #F6F6F6",
/* pixels */
"u.u.u.u.u.u.u.u.u.u.u.u.u.u.u.u.u.u.u.u.u.u.u.u.u.u.u.u.u.u.u.u.",
"u.u.u.u.u.u.u.u.u.u.u.u.u.u.u.u.u.u.u.u.u.u.u.u.u.u.u.u.u.u.u.u.",
"u.u.u.u.u.u.u.u.u.u.u.u.u.u.u.u.u.u.u.u.u.u.u.u.u.u.u.u.u.u.u.u.",
"u.u.u.u.u.u.u.u.u.u.u.u.u.u.u.e.P 0 : 0 V r.u.u.u.u.u.u.u.u.u.u.",
"u.u.u.u.u.u.u.u.u.u.u.u.u.u.u.j : : : : : / u.u.u.u.u.u.u.u.u.u.",
"u.u.u.u.u.u.u.u.u.u.u.u.u.u.[ : : j P n 0 0.u.u.u.u.u.u.u.u.u.u.",
"u.u.u.u.u.u.u.u.u.u.u.u.u.u.n : g e.u.u.u.u.u.u.u.u.u.u.u.u.u.u.",
"u.u.u.u.u.u.u.u.u.u.u.;.B 8 O O ; B | u.u.u.u.u.u.u.u.u.u.u.u.u.",
"u.u.u.u.u.u.u.u.u.7.k O O O O O O O O 9 8.u.u.u.u.u.u.u.u.u.u.u.",
"u.u.u.u.u.u.u.u.<.- O O O O O O O O O O = 1.u.u.u.u.u.u.u.u.u.u.",
"u.u.u.u.u.u.u.7.- O O O O O O O O O O O O = 8.u.u.u.u.u.u.u.u.u.",
"u.u.u.u.u.u.u.q * O O O O O O O O O O O O * l u.u.u.u.u.u.u.u.u.",
"u.u.u.u.u.u. .< s < O O O O O O O O O O 1 s < :.u.u.u.u.u.u.u.u.",
"u.u.u.u.u.u.B < s s < O + > e e > # O 1 s s < B u.u.u.u.u.u.u.u.",
"u.u.u.u.u.u.h < s s s y s s x s s s y s s s < 9 u.u.u.u.u.u.u.u.",
"u.u.u.u.u.u.O < s s s s s s Z f s s s s s s < O u.u.u.u.u.u.u.u.",
"u.u.u.u.u.u.O < s s s s s s R M s s s s s s < O u.u.u.u.u.u.u.u.",
"u.u.u.u.u.u.O < s s s s s s *.] s s s s s s < O u.u.u.u.u.u.u.u.",
"u.u.u.u.u.u.O < s s 3 a s Z 5.2.z s a 4 s s < O u.u.u.u.u.u.u.u.",
"u.u.u.u.u.u.O < s s . 5 z *.5.5.] s 6   a s < O u.u.u.u.u.u.u.u.",
"u.u.u.u.u.u.O < s s a s +.%.$.$.3.D s a s s < O u.u.u.u.u.u.u.u.",
"u.u.u.u.u.u.O < s s d O.^ T U Y W =.J s 7 u < O u.u.u.u.u.u.u.u.",
"u.u.u.u.u.u.O p N S H K ~ ~ Q ! ~ L } ` C A 2 O u.u.u.u.u.u.u.u.",
"u.u.u.u.u.u.O $ >._ } ( E ~ &.o.~ #.) _ } } % O u.u.u.u.u.u.u.u.",
"u.u.u.u.u.u.O , r s v ' 5.4.5.5.4.*.m s f b O O u.u.u.u.u.u.u.u.",
"u.u.u.u.u.u.t s s s s s @.5.5.5.*.x s s s s w = u.u.u.u.u.u.u.u.",
"u.u.u.u.u.u.F s @ i & s Z 5.5.5.] s s X i & s I u.u.u.u.u.u.u.u.",
"u.u.u.u.u.u.{ s o s o s X.y.w.w.9.c 7 7 7 7 G u.u.u.u.u.u.u.u.u.",
"u.u.u.u.u.u.u.q.,...-.t.u.u.u.u.u.u.,.....6.u.u.u.u.u.u.u.u.u.u.",
"u.u.u.u.u.u.u.u.u.u.u.u.u.u.u.u.u.u.u.u.u.u.u.u.u.u.u.u.u.u.u.u.",
"u.u.u.u.u.u.u.u.u.u.u.u.u.u.u.u.u.u.u.u.u.u.u.u.u.u.u.u.u.u.u.u.",
"u.u.u.u.u.u.u.u.u.u.u.u.u.u.u.u.u.u.u.u.u.u.u.u.u.u.u.u.u.u.u.u."
};
