/* XPM */
static char *result[] = {
/* columns rows colors chars-per-pixel */
"32 32 153 2 ",
"   c #65513C",
".  c #6C573C",
"X  c #6F593C",
"o  c #79613D",
"O  c #7E653D",
"+  c #565752",
"@  c #725C40",
"#  c #7F6641",
"$  c #856837",
"%  c #876A39",
"&  c #896D3E",
"*  c #8B6F3E",
"=  c #8C6F3D",
"-  c #8E713E",
";  c #907340",
":  c #917340",
">  c #907341",
",  c #937642",
"<  c #977845",
"1  c #947949",
"2  c #967A4A",
"3  c #9C7D49",
"4  c #947950",
"5  c #957C51",
"6  c #967E53",
"7  c #9F804B",
"8  c #9B8050",
"9  c #9B8255",
"0  c #9C8255",
"q  c #A2834D",
"w  c #A4854F",
"e  c #A68651",
"r  c #A78751",
"t  c #A68752",
"y  c #A28455",
"u  c #A58855",
"i  c #AA8A53",
"p  c #A98A54",
"a  c #AD8D56",
"s  c #A08659",
"d  c #A2895F",
"f  c #A88B5B",
"g  c #AC8D58",
"h  c #AF8F58",
"j  c #B2915A",
"k  c #B1925D",
"l  c #B1935D",
"z  c #B1925E",
"x  c #B4945C",
"c  c #B4945D",
"v  c #B7975F",
"b  c #A28960",
"n  c #A18A61",
"m  c #A28A60",
"M  c #A18B66",
"N  c #A8916A",
"B  c #A8916B",
"V  c #B19460",
"C  c #BA9961",
"Z  c #B69A6A",
"A  c #A59172",
"S  c #AF9872",
"D  c #AE9975",
"F  c #BFA373",
"G  c #BBA074",
"H  c #BFA374",
"J  c #BFA77F",
"K  c #C5AA7D",
"L  c #B4A080",
"P  c #B4A180",
"I  c #B5A383",
"U  c #B6A68A",
"Y  c #BAA88B",
"T  c #BAA98B",
"R  c #BDAF96",
"E  c #C1AB85",
"W  c #C3AD87",
"Q  c #C8AE82",
"!  c #CBB183",
"~  c #C9B086",
"^  c #C8B38E",
"/  c #CDB68F",
"(  c #C0B095",
")  c #C0B096",
"_  c #CCBA9C",
"`  c #D1B991",
"'  c #D1BA91",
"]  c #D8BF97",
"[  c #F3BB9F",
"{  c #C6B8A0",
"}  c #CCBFAA",
"|  c #F5B7A1",
" . c #FCB6AF",
".. c #D6C098",
"X. c #DAC59F",
"o. c #EBCA9B",
"O. c #EACC9A",
"+. c #EBCE9D",
"@. c #D3C1A3",
"#. c #D4C2A2",
"$. c #D0C0A5",
"%. c #D1C1A6",
"&. c #D3C2A6",
"*. c #DAC5A0",
"=. c #DBC9A8",
"-. c #CFC4B1",
";. c #D1C6B4",
":. c #D2C7B5",
">. c #D6C8B0",
",. c #DFCEB3",
"<. c #DCCDB5",
"1. c #D5CCBC",
"2. c #DBCEBA",
"3. c #ECD3A6",
"4. c #F4CFB6",
"5. c #E1D0B1",
"6. c #E7D4B3",
"7. c #E3D3BA",
"8. c #E8D7BA",
"9. c #EADABF",
"0. c #ECDBBD",
"q. c #F2DABA",
"w. c #D8CFC0",
"e. c #D8D0C0",
"r. c #D9D2C6",
"t. c #DFD4C4",
"y. c #DCD5C8",
"u. c #EADAC0",
"i. c #EADBC2",
"p. c #E3DBCE",
"a. c #E4DCCE",
"s. c #E9DFCF",
"d. c #E3DDD4",
"f. c #E3DED4",
"g. c #F1E0C5",
"h. c #F3E2C5",
"j. c #F4E5C9",
"k. c #F5E6CC",
"l. c #E9E3D8",
"z. c #E8E4DE",
"x. c #E9E6DF",
"c. c #F5E8D1",
"v. c #F5EAD7",
"b. c #EAE7E0",
"n. c #EBE7E2",
"m. c #EDE9E2",
"M. c #EFEDEA",
"N. c #F0EEEB",
"B. c #F0EFEC",
"V. c #F6F1E8",
"C. c #F2F0EC",
"Z. c #F6F4F1",
"A. c #F6F6F6",
/* pixels */
"A.A.A.A.A.A.A.A.A.A.A.A.A.A.A.A.A.A.A.A.A.A.A.A.A.A.A.A.A.A.A.A.",
"A.A.A.A.A.A.A.A.A.A.A.A.A.A.A.A.A.A.A.A.A.A.A.A.A.A.A.A.A.A.A.A.",
"A.A.A.A.A.A.A.A.A.A.A.A.A.A.A.A.A.A.A.A.A.A.A.A.A.A.A.A.A.A.A.A.",
"A.A.A.A.A.A.A.A.A.A.A.A.A.A.A.A.A.A.A.A.A.A.A.A.A.A.A.A.A.A.A.A.",
"A.A.A.A.A.A.A.A.A.A.A.A.A.A.A.A.A.A.A.A.A.A.A.A.A.A.A.A.A.A.A.A.",
"A.A.A.A.A.A.A.A.A.A.A.A.A.A.A.A.A.A.A.A.A.A.A.:.P ) A.A.A.A.A.A.",
"A.A.A.Z 2.A.A.A.A.A.A.A.A.m.Z l.A.A.A.A.A.A.T 2 m { A.A.A.A.A.A.",
"A.A.A.a a 2.A.p.>.%.t.A.m.Z a a.A.A.A.A.A.:.2 { A.A.A.A.A.A.A.A.",
"A.A.A.a a a G a l z a Z Z a a a.A.A.A.A.A.L 0 A.A.A.A.A.A.A.A.A.",
"A.A.A.a a a a a H F a a a a a a.A.A.A.A.A.L d A.A.A.A.A.A.A.A.A.",
"A.A.A.a a a a a X.' a a a a a a.A.A.A.A.A.} 2 :.A.A.A.A.A.A.A.A.",
"A.A.A.a a 6 a k 0.g.z a 6 a a a.A.A.A.A.A.N.b 2 P ( e.A.A.A.A.A.",
"A.A.A.a a + u ` k.k...a + 6 a a.A.A.A.A.A.A.b.Y N 2 2 N B.A.A.A.",
"A.A.A.a a a ! 4. . .q.Q a a a a.A.A.A.A.A.A.A.A.A.A.} 2 { A.A.A.",
"A.A.A.V y J ] o.| [ O.6.W f e @   & -     o n I x.A.A.D 0 A.A.A.",
"A.A.A.v.9.,.*.O.3.+.+.@.u.&.7.    & -     o - - 9 d.A.( 2 A.A.A.",
"A.A.A.n.i.k.k.h.k.j.j.k.k.k.A     & -     o - - - 1 f.d B A.A.A.",
"A.A.A.A.V.c.k.k.k.k.k.k.k.E O     & -     o - - - - > 2 w.A.A.A.",
"A.A.A.A.A.Z.s.=.8.8.5.^ 8 - * . X - - # 4 g h 7 - - - ;.A.A.A.A.",
"A.A.A.A.A.A.1.- - - - ; w t : - - - 3 v C C C C c : - -.A.A.A.A.",
"A.A.A.A.A.M.5 - - - - r C C r - - , x C C C C C C w - -.A.A.A.A.",
"A.A.A.A.A.z.% - - - - i C C p - - 3 C C C C C C C v - y.A.A.A.A.",
"A.A.A.A.A.z.% - - - - i C C p - - w C C C C C C C C s A.A.A.A.A.",
"A.A.A.A.A.z.$ = - - - i C C p - - 7 C C C C C C C v -.A.A.A.A.A.",
"A.A.A.r.R U $ % - q w j C C p - ; w C C C C C C C #.A.A.A.A.A.A.",
"A.A.A.$ $ $ $ $ < C C C C C p - w C C C C C C C K C.A.A.A.A.A.A.",
"A.A.A.M M M M M S ~ ~ ~ ~ ~ $.-._ ~ ~ ~ ~ ~ / <.A.A.A.A.A.A.A.A.",
"A.A.A.A.A.A.A.A.A.A.A.A.A.A.A.A.A.A.A.A.A.A.A.A.A.A.A.A.A.A.A.A.",
"A.A.A.A.A.A.A.A.A.A.A.A.A.A.A.A.A.A.A.A.A.A.A.A.A.A.A.A.A.A.A.A.",
"A.A.A.A.A.A.A.A.A.A.A.A.A.A.A.A.A.A.A.A.A.A.A.A.A.A.A.A.A.A.A.A.",
"A.A.A.A.A.A.A.A.A.A.A.A.A.A.A.A.A.A.A.A.A.A.A.A.A.A.A.A.A.A.A.A.",
"A.A.A.A.A.A.A.A.A.A.A.A.A.A.A.A.A.A.A.A.A.A.A.A.A.A.A.A.A.A.A.A."
};
