/* XPM */
static char *result[] = {
/* columns rows colors chars-per-pixel */
"32 32 143 2 ",
"   c #65513C",
".  c #6F593C",
"X  c #725B3D",
"o  c #79613D",
"O  c #4E5352",
"+  c #565753",
"@  c #725C41",
"#  c #7F6641",
"$  c #856837",
"%  c #81673D",
"&  c #866938",
"*  c #866A38",
"=  c #876A38",
"-  c #896D3E",
";  c #8D703D",
":  c #8E713E",
">  c #8C7143",
",  c #8E7344",
"<  c #907340",
"1  c #917340",
"2  c #907341",
"3  c #977946",
"4  c #957949",
"5  c #967A4A",
"6  c #9C7D49",
"7  c #9C7E49",
"8  c #9A7E4E",
"9  c #8F7952",
"0  c #967E53",
"q  c #957E54",
"w  c #9A7E53",
"e  c #9F804B",
"r  c #9B8050",
"t  c #9B8155",
"y  c #9C8255",
"u  c #A4854F",
"i  c #A78751",
"p  c #A68752",
"a  c #AA8A53",
"s  c #A98A54",
"d  c #AC8C56",
"f  c #AD8D56",
"g  c #A2895F",
"h  c #AA8B58",
"j  c #B1915A",
"k  c #B2915A",
"l  c #B1935D",
"z  c #B1925E",
"x  c #B7975F",
"c  c #A28960",
"v  c #A28A60",
"b  c #A18B66",
"n  c #AF9260",
"m  c #B29460",
"M  c #B49767",
"N  c #BA9961",
"B  c #B69A6A",
"V  c #A89472",
"C  c #AE9872",
"Z  c #AE9975",
"A  c #AC987B",
"S  c #BFA373",
"D  c #BFA374",
"F  c #C5AA7D",
"G  c #B4A180",
"H  c #B6A68A",
"J  c #BAA88A",
"K  c #BAA88B",
"L  c #BDAF96",
"P  c #C2AB85",
"I  c #C3AD87",
"U  c #C4AD87",
"Y  c #C8AE82",
"T  c #CBB184",
"R  c #C9B086",
"E  c #C8B38E",
"W  c #C0B095",
"Q  c #C2B39A",
"!  c #D1B991",
"~  c #D1BA91",
"^  c #F3BB9F",
"/  c #C6B8A0",
"(  c #C8BCA6",
")  c #CBBFAA",
"_  c #CCBFAA",
"`  c #D1BFA0",
"'  c #F4B9A0",
"]  c #FCB6AF",
"[  c #FCBAB1",
"{  c #D6C098",
"}  c #D4C19F",
"|  c #DAC39D",
" . c #DAC59F",
".. c #ECCA9B",
"X. c #EACC9A",
"o. c #EBCE9D",
"O. c #CCC0AB",
"+. c #D0C0A5",
"@. c #D1C1A6",
"#. c #DBC5A3",
"$. c #DCC7A6",
"%. c #D4C6AE",
"&. c #DBC9A8",
"*. c #CFC4B1",
"=. c #D2C7B5",
"-. c #DFCEB3",
";. c #D5CCBC",
":. c #D6CDBD",
">. c #DACEBA",
",. c #DFD3BE",
"<. c #E3CAA0",
"1. c #ECD1A3",
"2. c #F6C7B1",
"3. c #E1D1B6",
"4. c #E8D7BA",
"5. c #EADABF",
"6. c #ECDBBD",
"7. c #F2DABA",
"8. c #DED7CB",
"9. c #EADAC0",
"0. c #E3DBCE",
"q. c #E1DBD2",
"w. c #E3DDD3",
"e. c #E2DDD4",
"r. c #E3DED4",
"t. c #F1E0C5",
"y. c #F3E2C5",
"u. c #F4E5C9",
"i. c #F5E6CC",
"p. c #F5E7CE",
"a. c #EFE6D6",
"s. c #E8E4DE",
"d. c #F5ECDC",
"f. c #EDE9E2",
"g. c #EFEDEA",
"h. c #EFEEEB",
"j. c #F0EFEB",
"k. c #F2EFEC",
"l. c #F6F1E9",
"z. c #F2F0ED",
"x. c #F6F4F1",
"c. c #F6F5F4",
"v. c #F6F6F6",
/* pixels */
"v.v.v.v.v.v.v.v.v.v.v.v.v.v.v.v.v.v.v.v.v.v.v.v.v.v.v.v.v.v.v.v.",
"v.v.v.v.v.v.v.v.v.v.v.v.v.v.v.v.v.v.v.v.v.v.v.v.v.v.v.v.v.v.v.v.",
"v.v.v.v.v.v.v.v.v.v.v.v.v.v.v.v.v.v.v.v.v.v.v.v.v.v.v.v.v.v.v.v.",
"v.v.v.v.v.v.v.v.v.v.v.v.v.v.v.v.v.v.v.v.v.v.v.v.v.v.v.v.v.v.v.v.",
"v.v.v.v.v.v.v.v.v.v.v.v.v.v.v.v.v.v.v.v.v.v.v.v.v.v.v.v.v.v.v.v.",
"v.v.v.v.v.v./ Z =.v.v.v.v.v.v.v.v.v.v.v.v.v.v.v.v.v.v.v.v.v.v.v.",
"v.v.v.v.v.v.W c 5 K v.v.v.v.v.v.0.B f.v.v.v.v.v.v.v.v.>.B v.v.v.",
"v.v.v.v.v.v.v.v./ 5 =.v.v.v.v.v.0.f B f.k.0.@.@.0.v.>.f f v.v.v.",
"v.v.v.v.v.v.v.v.v.y J v.v.v.v.v.0.f f B B f l z f B f f f v.v.v.",
"v.v.v.v.v.v.v.v.v.v Z v.v.v.v.v.0.f f f f f D S f f f f f v.v.v.",
"v.v.v.v.v.v.v.v._ 5 =.v.v.v.v.v.0.f f f f f  .~ f f f f f v.v.v.",
"v.v.v.v.v.8.W Z 5 c v.v.v.v.v.v.0.f f 9 f f 6.t.z f 0 f f v.v.v.",
"v.v.v.j.Z 5 5 v / j.v.v.v.v.v.v.0.f q O f ! i.i.{ q + f f v.v.v.",
"v.v.v.W 5 O.v.v.v.v.v.v.v.v.v.v.0.f f f Y 7.[ ] 2.T f f f v.v.v.",
"v.v.v.g G v.v.h.Q t o     : -   @ f n U #.X.^ ' ..<.I M m v.v.v.",
"v.v.v.5 W v.w.4 : : o     : -     3.-.-.$.X.o.1.X.| 9.5.d.v.v.v.",
"v.v.v.Z g r.4 : : : o     : -     A i.i.i.u.u.i.y.i.i.5.x.v.v.v.",
"v.v.v.8.5 2 : : : : o     : -     % P i.i.i.i.i.i.i.p.l.v.v.v.v.",
"v.v.v.v.) : : < u d h w # : : X . - : r E &.4.4.} a.c.v.v.v.v.v.",
"v.v.v.v.:.: < j N N N N N 6 : : : < u p 1 : : : : ;.v.v.v.v.v.v.",
"v.v.v.v.*.: s N N N N N N x 1 : : i N N i : : : : , g.v.v.v.v.v.",
"v.v.v.v.e.: x N N N N N N N e : : a N N s : : : : = s.v.v.v.v.v.",
"v.v.v.v.v.8 N N N N N N N N u : : a N N s : : : : * s.v.v.v.v.v.",
"v.v.v.v.v.( x N N N N N N N 7 : : a N N s : : : ; $ s.v.v.v.v.v.",
"v.v.v.v.v.v.` N N N N N N N i 1 : a N N k u e : & $ H L q.v.v.v.",
"v.v.v.v.v.v.z.F N N N N N N N u : a N N N N N 3 $ $ $ $ > v.v.v.",
"v.v.v.v.v.v.v.v.,.R R R R R R +.*.%.R R R R R C b b b b V v.v.v.",
"v.v.v.v.v.v.v.v.v.v.v.v.v.v.v.v.v.v.v.v.v.v.v.v.v.v.v.v.v.v.v.v.",
"v.v.v.v.v.v.v.v.v.v.v.v.v.v.v.v.v.v.v.v.v.v.v.v.v.v.v.v.v.v.v.v.",
"v.v.v.v.v.v.v.v.v.v.v.v.v.v.v.v.v.v.v.v.v.v.v.v.v.v.v.v.v.v.v.v.",
"v.v.v.v.v.v.v.v.v.v.v.v.v.v.v.v.v.v.v.v.v.v.v.v.v.v.v.v.v.v.v.v.",
"v.v.v.v.v.v.v.v.v.v.v.v.v.v.v.v.v.v.v.v.v.v.v.v.v.v.v.v.v.v.v.v."
};
