/* XPM */
static char *result[] = {
/* columns rows colors chars-per-pixel */
"32 32 60 1 ",
"  c #65513C",
". c #6D5941",
"X c #6D5A41",
"o c #6E5B47",
"O c #6E5B48",
"+ c #766346",
"@ c #7E6B4C",
"# c #7F6B4C",
"$ c #776553",
"% c #776653",
"& c #877451",
"* c #8F7D56",
"= c #80705E",
"- c #80705F",
"; c #897A6A",
": c #897A6B",
"> c #97855B",
", c #98855B",
"< c #928476",
"1 c #928576",
"2 c #A08E60",
"3 c #A89765",
"4 c #B19F6A",
"5 c #B09F6B",
"6 c #B1A06B",
"7 c #B9A870",
"8 c #C2B175",
"9 c #CABA7A",
"0 c #D2C27F",
"q c #D3C37F",
"w c #9B8E82",
"e c #9B8F82",
"r c #A4998E",
"t c #ADA399",
"y c #ADA499",
"u c #B6ADA5",
"i c #B6AEA4",
"p c #B7AEA4",
"a c #BFB8B0",
"s c #C0B8B0",
"d c #DBCB84",
"f c #DBCB85",
"g c #E4D48A",
"h c #ECDD8F",
"j c #C9C2BB",
"k c #C8C3BB",
"l c #C9C3BB",
"z c #C8C2BC",
"x c #D1CCC7",
"c c #D1CDC7",
"v c #D2CDC7",
"b c #DAD7D3",
"n c #DBD7D3",
"m c #DBD7D4",
"M c #E3E1DF",
"N c #E4E1DF",
"B c #E4E2DF",
"V c #EDECEA",
"C c #EDECEB",
"Z c #F6F6F6",
/* pixels */
"ZZZZZZZZZZZZZZZZZZZZZZZZZZZZZZZZ",
"ZZZZZZZZZZZZZZZZZZZZZZZZZZZZZZZZ",
"ZZZZZZZZZZZZZZZZZZZZZZZZZZZZZZZZ",
"ZZZZZZZZZZZZZZZZZZZZZZZZZZZZZZZZ",
"ZZZZZZZZZZZZZZZZZZZZZZZZZZZZZZZZ",
"ZZZZZZZZZZZZZZZZZZZZZZZZZZZZZZZZ",
"ZZZZZZZZZZZZZZZt<yCZZZZZZZZZZZZZ",
"ZZZZZZZZZZZxei-+2+;ZZZZZZZZZZZZZ",
"ZZZZZZZZZZz *@&dhfX -BZZZZZZZZZZ",
"ZZZZZZZZi-o3h9ggdhf9&;ZZZZZZZZZZ",
"ZZZZZZZB ,5g#Xq8X3ghfXoeCZZZZZZZ",
"ZZZZZZC1*hh9 dhh2@0 6f8+<BZZZZZZ",
"ZZZZZV% &9hg7hhhhhh4Xg9> %ZZZZZZ",
"ZZZZZx p;  &*357775> . :l mZZZZZ",
"ZZZZZi=ZZCvte;-$$$-1rsBZZ$uZZZZZ",
"ZZZZZ1<BaZZZZZZZZZZZZZZZZweZZZZZ",
"ZZZZZ%si=ZZZZZZZZZZZZZZZZaOZZZZZ",
"ZZZZx N1eZZZZZZZZZZZZZZZZVOvZZZZ",
"ZZZZ%eBOjZZZZZZZZZZZZZZZZZe;ZZZZ",
"ZZZkONt%ZZZZZZZZZZZZZZZZZZN mZZZ",
"ZZZaOCpnZZZZZZZZZZZZZZZZZZB vZZZ",
"ZZZV%<BZZZZZZZZZZZZZZZZZZB-%ZZZZ",
"ZZZZN% ebZZZZZZZZZZZZZZMto:NZZZZ",
"ZZZZZZs; %<tizcccczate$ :sZZZZZZ",
"ZZZZZZZZNsr;-o    o$-epnZZZZZZZZ",
"ZZZZZZZZZZZZZZZZZZZZZZZZZZZZZZZZ",
"ZZZZZZZZZZZZZZZZZZZZZZZZZZZZZZZZ",
"ZZZZZZZZZZZZZZZZZZZZZZZZZZZZZZZZ",
"ZZZZZZZZZZZZZZZZZZZZZZZZZZZZZZZZ",
"ZZZZZZZZZZZZZZZZZZZZZZZZZZZZZZZZ",
"ZZZZZZZZZZZZZZZZZZZZZZZZZZZZZZZZ",
"ZZZZZZZZZZZZZZZZZZZZZZZZZZZZZZZZ"
};
