/* XPM */
static char *result[] = {
/* columns rows colors chars-per-pixel */
"32 32 20 1 ",
"  c #65513C",
". c #6E5B47",
"X c #776653",
"o c #897A6A",
"O c #928576",
"+ c #9B8F82",
"@ c #A4998D",
"# c #A59A8D",
"$ c #ADA399",
"% c #AEA499",
"& c #B6ADA5",
"* c #BFB8B0",
"= c #C9C3BB",
"- c #C8C2BC",
"; c #D1CCC7",
": c #DAD7D3",
"> c #DBD7D3",
", c #E4E1DF",
"< c #E4E2DF",
"1 c #F6F6F6",
/* pixels */
"11111111111111111111111111111111",
"11111111111111111111111111111111",
"11111111111111111111111111111111",
"11111111111111111111111111111111",
"11111111111111111111111111111111",
"11111111111111111111111111111111",
"11111111111111111111111111111111",
"11111111;-111111111111>-11111111",
"1111111:  $1111111111>. @1111111",
"1111111=   $11111111>.  o1111111",
"11111111%   $111111>.  X,1111111",
"111111111%   $1111>.  X,11111111",
"1111111111%   $11>.  X,111111111",
"11111111111%   $>.  X,1111111111",
"111111111111%   .  X,11111111111",
"1111111111111%    X,111111111111",
"1111111111111>    @1111111111111",
"111111111111>.     $111111111111",
"11111111111>.  X#   $11111111111",
"1111111111>.  X,1%   $1111111111",
"111111111>.  X,111%   $111111111",
"11111111>.  X,11111%   $11111111",
"1111111<.  X,1111111%   &1111111",
"1111111*  X,111111111%  o1111111",
"11111111+O,11111111111%O>1111111",
"11111111111111111111111111111111",
"11111111111111111111111111111111",
"11111111111111111111111111111111",
"11111111111111111111111111111111",
"11111111111111111111111111111111",
"11111111111111111111111111111111",
"11111111111111111111111111111111"
};
