/* XPM */
static char *result[] = {
/* columns rows colors chars-per-pixel */
"32 32 171 2 ",
"   c #65513C",
".  c #6F5A43",
"X  c #74614B",
"o  c #74614C",
"O  c #75644F",
"+  c #78634A",
"@  c #776450",
"#  c #776550",
"$  c #776553",
"%  c #776653",
"&  c #776654",
"*  c #786652",
"=  c #786755",
"-  c #7B6A52",
";  c #7B6A53",
":  c #7A6A57",
">  c #7B6A58",
",  c #7F6F5A",
"<  c #7E6E5B",
"1  c #816B50",
"2  c #826C50",
"3  c #806F5A",
"4  c #806F5C",
"5  c #8B7457",
"6  c #82725A",
"7  c #83725B",
"8  c #80705D",
"9  c #80705E",
"0  c #81705E",
"q  c #80705F",
"w  c #957D5E",
"e  c #817161",
"r  c #877761",
"t  c #867662",
"y  c #897963",
"u  c #8A7962",
"i  c #8A7A62",
"p  c #887964",
"a  c #8A7965",
"s  c #8C7C65",
"d  c #897A6A",
"f  c #8B7D6D",
"g  c #877F79",
"h  c #918269",
"j  c #91826A",
"k  c #92836D",
"l  c #94856E",
"z  c #928476",
"x  c #928576",
"c  c #958779",
"v  c #9C8E7C",
"b  c #A88F6C",
"n  c #A09379",
"m  c #A6957F",
"M  c #8D8885",
"N  c #9B8F81",
"B  c #9B8F82",
"V  c #939291",
"C  c #9B9B9E",
"Z  c #A39782",
"A  c #A79B81",
"S  c #A4998D",
"D  c #A89D91",
"F  c #AFA388",
"G  c #ACA08B",
"H  c #AFA38C",
"J  c #B9A68D",
"K  c #B6AB8F",
"L  c #AEA194",
"P  c #ADA399",
"I  c #AEA499",
"U  c #B6AB90",
"Y  c #B1A89D",
"T  c #BDB397",
"R  c #BDB49F",
"E  c #BEB49F",
"W  c #BFB69E",
"Q  c #A1A4A9",
"!  c #A2A4AA",
"~  c #B6ADA5",
"^  c #B6AEA4",
"/  c #B7AEA4",
"(  c #B7AEA5",
")  c #BFB6A2",
"_  c #A8AEB6",
"`  c #BFB8B0",
"'  c #D8BB8E",
"]  c #C4BB9F",
"[  c #C1B4A2",
"{  c #C0B8B0",
"}  c #E3C494",
"|  c #ECCD9B",
" . c #CCC3A6",
".. c #CCC4A6",
"X. c #CCC4A7",
"o. c #C8C0AC",
"O. c #CBC3AC",
"+. c #D4CCAE",
"@. c #CAC1B7",
"#. c #CFC8B3",
"$. c #D5CDB1",
"%. c #D2CBB4",
"&. c #D3C8B9",
"*. c #D3CABE",
"=. c #DBD4B6",
"-. c #DCD6B8",
";. c #DED7BB",
":. c #D8D2BD",
">. c #DBD5BE",
",. c #DED8BB",
"<. c #DFD9BD",
"1. c #F5D6A2",
"2. c #FFDFA9",
"3. c #E0D9BD",
"4. c #E1DBBF",
"5. c #B5C0CE",
"6. c #BCC9DA",
"7. c #D2CDC7",
"8. c #DBD5C3",
"9. c #DCD7C0",
"0. c #D8D3CE",
"q. c #DBD7D3",
"w. c #E3DDC1",
"e. c #E3DDC2",
"r. c #E1DCC7",
"t. c #E1DDC7",
"y. c #E4DFC4",
"u. c #E2DDC8",
"i. c #E4DFC8",
"p. c #E6DBCC",
"a. c #E2DEDA",
"s. c #E7E2C8",
"d. c #E9E4CA",
"f. c #EAE5CD",
"g. c #EAE6CD",
"h. c #E6E1D0",
"j. c #EBE7D0",
"k. c #EAE6D1",
"l. c #ECE7D0",
"z. c #EDE9D2",
"x. c #EFEBD4",
"c. c #EDE9D6",
"v. c #E4E1DF",
"b. c #E4E2DF",
"n. c #F0ECD6",
"m. c #F0EDD6",
"M. c #F0EDD7",
"N. c #F1EED9",
"B. c #F2EFD9",
"V. c #F3F0DB",
"C. c #F4F1DD",
"Z. c #F5F2DF",
"A. c #C3D3E7",
"S. c #C6D4E7",
"D. c #D0E5FF",
"F. c #D3E7FF",
"G. c #D9EAFF",
"H. c #DFEDFF",
"J. c #EDECEA",
"K. c #EDECEB",
"L. c #F8F5E3",
"P. c #F7F3EC",
"I. c #FCF9EB",
"U. c #FCFAEB",
"Y. c #FEFBEE",
"T. c #E1EFFF",
"R. c #EDF5FF",
"E. c #F7F5F1",
"W. c #F6F6F6",
"Q. c #F0F7FF",
"!. c #F9FCFF",
/* pixels */
"W.W.W.W.W.W.W.W.W.W.W.W.W.W.W.W.W.W.W.W.W.W.W.W.W.W.W.W.W.W.W.W.",
"W.W.W.W.W.W.W.W.W.W.W.W.W.W.W.W.W.W.W.W.W.W.W.W.W.W.W.W.W.W.W.W.",
"W.W.W.W.W.W.W.W.W.W.W.W.W.W.W.W.W.W.W.W.W.W.W.W.W.W.W.W.W.W.W.W.",
"W.W.W.W.W.W.W.W.W.W.W.W.W.K.P z d S b.W.W.W.W.W.W.W.W.W.W.W.W.W.",
"W.W.W.W.W.W.W.W.W.W.W.W.K.q I b.K.( q K.W.W.W.W.W.W.W.W.W.W.W.W.",
"W.W.W.W.W.W.W.W.W.W.W.W.S & z $ q d q B W.W.W.W.W.W.W.W.W.W.W.W.",
"W.W.W.W.W.W.W.W.W.W.b.d y R r.V.V.:.R k d b.W.W.W.W.W.W.W.W.W.W.",
"W.W.W.W.W.W.W.W.W.` 4 #.V.V.V.V.V.V.V.V.r.# P W.W.W.W.W.W.W.W.W.",
"W.W.W.W.W.W.W.W.` 3 c.C.B.d.4.,.,.4.f.M.V.k.p ~ W.W.W.W.W.W.W.W.",
"W.W.W.W.W.W.W.b.4 h.Y.n.;.T i > o 7 F ;.j.V.k., q.W.W.W.W.W.W.W.",
"W.W.W.W.W.W.W.N o.Y.N.$.7 M 5.D.D.6.M ;  .z.V.O.d W.W.W.W.W.W.W.",
"W.W.W.W.W.W.b.y U.L.;.h Q D.D.D.D.D.D._ 6 -.B.x.6 7.W.W.W.W.W.W.",
"W.W.W.W.W.W.^ ) Y.f.K M G.T.D.D.D.D.D.D.V F s.m.F S W.W.W.W.W.W.",
"W.W.W.W.W.W.x 8.I.e.u 5.!.H.D.D.D.D.D.Q.S.6 4.m.X.z W.W.W.W.W.W.",
"W.W.W.W.W.W.d u.Z.3.- F.!.D.D.D.D.D.D.Q.T.: ,.m.=.% W.W.W.W.W.W.",
"W.W.W.W.W.W.d t.V.3.X D.F.D.D.D.D.D.D.R.H.: ,.m.=.% W.W.W.W.W.W.",
"W.W.W.W.W.W.d t.V.y.j 5.D.D.D.D.D.D.D.F.A.7 4.m.=.% W.W.W.W.W.W.",
"W.W.W.W.W.W.d t.V.l.T g D.D.D.D.D.D.D.D.M F g.m.=.% W.W.W.W.W.W.",
"W.W.W.W.E.J . t.V.V.;.h C D.D.D.D.D.D.! 7 ;.V.m.=.  m P.W.W.W.W.",
"W.W.W.W.[ w 5 t.V.V.x.$.j M 5.D.D.5.M 7 $.x.V.m.=.+ b L W.W.W.W.",
"W.W.W.W.d } 5 t.V.V.V.m.;.K i ; o i T ;.x.V.V.m.=.+ 1.9 W.W.W.W.",
"W.W.W.W.d | 5 t.V.V.V.V.V.g.w.3.,.w.d.B.V.V.V.m.=.+ 2.% W.W.W.W.",
"W.W.W.W.d | 5 t.V.V.V.V.V.V.V.V.V.V.V.V.V.V.V.x.=.+ 2.% W.W.W.W.",
"W.W.W.W.v ' 5 t.V.V.V.:.V.V.V.k.r.V.V.V.:.V.V.f.=.+ | d W.W.W.W.",
"W.W.W.W.*.+ 1 t.V.V.Z f # V.r.0 = #.V.3 c p m.;.+.. 2 @.W.W.W.W.",
"W.W.W.W.W.p.a G V.V.@ a.e k.E D Y G V.* 0.r <.=.F q &.W.W.W.W.W.",
"W.W.W.W.W.W.J.8 9.z.%.7 H z.i.l s >.z.W i U =...t v.W.W.W.W.W.W.",
"W.W.W.W.W.W.W.v.< A ]  . . . . . . . . . . .n O q.W.W.W.W.W.W.W.",
"W.W.W.W.W.W.W.W.J.{ x d d d d d d d d d d x / K.W.W.W.W.W.W.W.W.",
"W.W.W.W.W.W.W.W.W.W.W.W.W.W.W.W.W.W.W.W.W.W.W.W.W.W.W.W.W.W.W.W.",
"W.W.W.W.W.W.W.W.W.W.W.W.W.W.W.W.W.W.W.W.W.W.W.W.W.W.W.W.W.W.W.W.",
"W.W.W.W.W.W.W.W.W.W.W.W.W.W.W.W.W.W.W.W.W.W.W.W.W.W.W.W.W.W.W.W."
};
