/* XPM */
static char *result[] = {
/* columns rows colors chars-per-pixel */
"32 32 29 1 ",
"  c #8E713E",
". c #947949",
"X c #957949",
"o c #9B8155",
"O c #9B8255",
"+ c #A18A61",
"@ c #A28A60",
"# c #A28A61",
"$ c #A8926C",
"% c #AE9A78",
"& c #AF9A78",
"* c #B5A283",
"= c #B5A383",
"- c #BBAB8F",
"; c #C2B39A",
": c #C2B49A",
"> c #C9BBA5",
", c #C8BBA6",
"< c #C9BCA5",
"1 c #CFC4B1",
"2 c #D6CDBD",
"3 c #DCD4C8",
"4 c #DCD5C8",
"5 c #E3DDD3",
"6 c #E2DDD4",
"7 c #E9E5DF",
"8 c #E9E6DF",
"9 c #EFEEEB",
"0 c #F6F6F6",
/* pixels */
"00000000000000000000000000000000",
"09777777777777777777777777777700",
"7o                            ;0",
";                             .0",
"4                             &0",
"0711111111111=   <11111111111190",
"00000000000001   800000000000000",
"00000000000001   800000000000000",
"00000000000001   800000000000000",
"00000000000001   800000000000000",
"01===========$   &============10",
"2                              ;",
">                              &",
"9#                            O8",
"00000003   100000000*  O00000000",
"00000003   100000000*  O00000000",
"00000003   100000000*  O00000000",
"00000003   100000000*  O00000000",
"00777772   ,77777777%  O77777790",
"0$                             >",
"3                              O",
"9X                             =",
"07<;;;;;;;;;;;$   -;;;;;;;;;;;19",
"00000000000000;   80000000000000",
"00000000000000;   80000000000000",
"00000000000000;   80000000000000",
"00000000000000;   80000000000000",
"01============+   &===========-8",
"7                              $",
"6                              @",
"0:ooooooooooooooooooooooooooooo5",
"00000000000000000000000000000000"
};
